<svg version="1.1" xmlns="http://www.w3.org/2000/svg" viewBox="0 0 3419.9999999999995 4906.093919232086" width="3419.9999999999995" height="4906.093919232086"><rect x="0" y="0" width="3419.9999999999995" height="4906.093919232086" fill="#ffffff"></rect><g stroke-linecap="round" transform="translate(10 2486.093919232086) rotate(0 1699.9999999999998 1205)"><path d="M32 0 C763.36 0, 1494.73 0, 3368 0 M32 0 C1239.47 0, 2446.94 0, 3368 0 M3368 0 C3389.33 0, 3400 10.67, 3400 32 M3368 0 C3389.33 0, 3400 10.67, 3400 32 M3400 32 C3400 538.31, 3400 1044.61, 3400 2378 M3400 32 C3400 637.78, 3400 1243.57, 3400 2378 M3400 2378 C3400 2399.33, 3389.33 2410, 3368 2410 M3400 2378 C3400 2399.33, 3389.33 2410, 3368 2410 M3368 2410 C2481.37 2410, 1594.74 2410, 32 2410 M3368 2410 C2390.79 2410, 1413.58 2410, 32 2410 M32 2410 C10.67 2410, 0 2399.33, 0 2378 M32 2410 C10.67 2410, 0 2399.33, 0 2378 M0 2378 C0 1727, 0 1076, 0 32 M0 2378 C0 1827.74, 0 1277.47, 0 32 M0 32 C0 10.67, 10.67 0, 32 0 M0 32 C0 10.67, 10.67 0, 32 0" stroke="#1e1e1e" stroke-width="4" fill="none"></path></g><g stroke-linecap="round" transform="translate(1375.938231628813 2636.9179971850954) rotate(0 272.57825137973396 153.71783680516015)"><path d="M32 0 C141.07 0, 250.14 0, 513.16 0 M32 0 C184.07 0, 336.14 0, 513.16 0 M513.16 0 C534.49 0, 545.16 10.67, 545.16 32 M513.16 0 C534.49 0, 545.16 10.67, 545.16 32 M545.16 32 C545.16 128.35, 545.16 224.69, 545.16 275.44 M545.16 32 C545.16 82.82, 545.16 133.65, 545.16 275.44 M545.16 275.44 C545.16 296.77, 534.49 307.44, 513.16 307.44 M545.16 275.44 C545.16 296.77, 534.49 307.44, 513.16 307.44 M513.16 307.44 C402.67 307.44, 292.19 307.44, 32 307.44 M513.16 307.44 C394.72 307.44, 276.28 307.44, 32 307.44 M32 307.44 C10.67 307.44, 0 296.77, 0 275.44 M32 307.44 C10.67 307.44, 0 296.77, 0 275.44 M0 275.44 C0 182.28, 0 89.13, 0 32 M0 275.44 C0 198.22, 0 121, 0 32 M0 32 C0 10.67, 10.67 0, 32 0 M0 32 C0 10.67, 10.67 0, 32 0" stroke="#6649ff" stroke-width="2" fill="none"></path></g><g transform="translate(1458.4752876947991 2736.865556918466) rotate(0 194.41210526749046 46.362188551058765)"><text x="0" y="70.76724460433611" font-family="Nunito, sans-serif, Segoe UI Emoji" font-size="74.17950168169403px" fill="#1e1e1e" text-anchor="start" style="white-space: pre;" direction="ltr" dominant-baseline="alphabetic">Main Agent</text></g><g stroke-linecap="round" transform="translate(599.9761957658866 3671.65923479767) rotate(0 272.57825137973396 153.71783680516012)"><path d="M32 0 C187.98 0, 343.96 0, 513.16 0 M32 0 C192.26 0, 352.52 0, 513.16 0 M513.16 0 C534.49 0, 545.16 10.67, 545.16 32 M513.16 0 C534.49 0, 545.16 10.67, 545.16 32 M545.16 32 C545.16 86.23, 545.16 140.46, 545.16 275.44 M545.16 32 C545.16 105.2, 545.16 178.41, 545.16 275.44 M545.16 275.44 C545.16 296.77, 534.49 307.44, 513.16 307.44 M545.16 275.44 C545.16 296.77, 534.49 307.44, 513.16 307.44 M513.16 307.44 C414.54 307.44, 315.92 307.44, 32 307.44 M513.16 307.44 C384.82 307.44, 256.48 307.44, 32 307.44 M32 307.44 C10.67 307.44, 0 296.77, 0 275.44 M32 307.44 C10.67 307.44, 0 296.77, 0 275.44 M0 275.44 C0 195.65, 0 115.87, 0 32 M0 275.44 C0 221.19, 0 166.95, 0 32 M0 32 C0 10.67, 10.67 0, 32 0 M0 32 C0 10.67, 10.67 0, 32 0" stroke="#6649ff" stroke-width="2" fill="none"></path></g><g transform="translate(746.6012476794572 3701.923032114661) rotate(0 125.55142846021477 112.95515474703399)"><text x="125.55142846021475" y="57.47158273529089" font-family="Nunito, sans-serif, Segoe UI Emoji" font-size="60.242749198418124px" fill="#1e1e1e" text-anchor="middle" style="white-space: pre;" direction="ltr" dominant-baseline="alphabetic">General</text><text x="125.55142846021475" y="132.77501923331354" font-family="Nunito, sans-serif, Segoe UI Emoji" font-size="60.242749198418124px" fill="#1e1e1e" text-anchor="middle" style="white-space: pre;" direction="ltr" dominant-baseline="alphabetic">Problem</text><text x="125.55142846021475" y="208.0784557313362" font-family="Nunito, sans-serif, Segoe UI Emoji" font-size="60.242749198418124px" fill="#1e1e1e" text-anchor="middle" style="white-space: pre;" direction="ltr" dominant-baseline="alphabetic">Solver</text></g><g stroke-linecap="round" transform="translate(1789.7180148985572 3685.229471311246) rotate(0 272.57825137973396 153.71783680516012)"><path d="M32 0 C193.45 0, 354.9 0, 513.16 0 M32 0 C135.26 0, 238.52 0, 513.16 0 M513.16 0 C534.49 0, 545.16 10.67, 545.16 32 M513.16 0 C534.49 0, 545.16 10.67, 545.16 32 M545.16 32 C545.16 104.3, 545.16 176.6, 545.16 275.44 M545.16 32 C545.16 86.74, 545.16 141.48, 545.16 275.44 M545.16 275.44 C545.16 296.77, 534.49 307.44, 513.16 307.44 M545.16 275.44 C545.16 296.77, 534.49 307.44, 513.16 307.44 M513.16 307.44 C332.9 307.44, 152.65 307.44, 32 307.44 M513.16 307.44 C372.49 307.44, 231.82 307.44, 32 307.44 M32 307.44 C10.67 307.44, 0 296.77, 0 275.44 M32 307.44 C10.67 307.44, 0 296.77, 0 275.44 M0 275.44 C0 199.65, 0 123.85, 0 32 M0 275.44 C0 190.76, 0 106.09, 0 32 M0 32 C0 10.67, 10.67 0, 32 0 M0 32 C0 10.67, 10.67 0, 32 0" stroke="#6649ff" stroke-width="2" fill="none"></path></g><g transform="translate(1926.8407355735303 3755.086315455726) rotate(0 141.38864719121034 75.30343649802262)"><text x="141.38864719121034" y="57.47158273529089" font-family="Nunito, sans-serif, Segoe UI Emoji" font-size="60.242749198418124px" fill="#1e1e1e" text-anchor="middle" style="white-space: pre;" direction="ltr" dominant-baseline="alphabetic">Software</text><text x="141.38864719121034" y="132.77501923331354" font-family="Nunito, sans-serif, Segoe UI Emoji" font-size="60.242749198418124px" fill="#1e1e1e" text-anchor="middle" style="white-space: pre;" direction="ltr" dominant-baseline="alphabetic">Developer</text></g><g transform="translate(1996.780375673904 3922.8055079947762) rotate(0 68.68333435058594 17.5)"><text x="68.68333435058594" y="26.712" font-family="Nunito, sans-serif, Segoe UI Emoji" font-size="28px" fill="#ff4987" text-anchor="middle" style="white-space: pre;" direction="ltr" dominant-baseline="alphabetic">Sonnet 3.5</text></g><g stroke-linecap="round" transform="translate(2388.4281965120595 3690.808698064505) rotate(0 272.57825137973396 153.71783680516012)"><path d="M32 0 C212.03 0, 392.06 0, 513.16 0 M32 0 C214.33 0, 396.66 0, 513.16 0 M513.16 0 C534.49 0, 545.16 10.67, 545.16 32 M513.16 0 C534.49 0, 545.16 10.67, 545.16 32 M545.16 32 C545.16 84.15, 545.16 136.31, 545.16 275.44 M545.16 32 C545.16 110.35, 545.16 188.69, 545.16 275.44 M545.16 275.44 C545.16 296.77, 534.49 307.44, 513.16 307.44 M545.16 275.44 C545.16 296.77, 534.49 307.44, 513.16 307.44 M513.16 307.44 C347.85 307.44, 182.54 307.44, 32 307.44 M513.16 307.44 C407.42 307.44, 301.69 307.44, 32 307.44 M32 307.44 C10.67 307.44, 0 296.77, 0 275.44 M32 307.44 C10.67 307.44, 0 296.77, 0 275.44 M0 275.44 C0 222.39, 0 169.35, 0 32 M0 275.44 C0 180.86, 0 86.29, 0 32 M0 32 C0 10.67, 10.67 0, 32 0 M0 32 C0 10.67, 10.67 0, 32 0" stroke="#6649ff" stroke-width="2" fill="none"></path></g><g transform="translate(2535.0532484256305 3762.2492640820838) rotate(0 125.55142846021454 75.30343649802262)"><text x="125.55142846021475" y="57.47158273529089" font-family="Nunito, sans-serif, Segoe UI Emoji" font-size="60.242749198418124px" fill="#1e1e1e" text-anchor="middle" style="white-space: pre;" direction="ltr" dominant-baseline="alphabetic">Archive</text><text x="125.55142846021475" y="132.77501923331354" font-family="Nunito, sans-serif, Segoe UI Emoji" font-size="60.242749198418124px" fill="#1e1e1e" text-anchor="middle" style="white-space: pre;" direction="ltr" dominant-baseline="alphabetic">Explorer</text></g><g transform="translate(2592.3231135412084 3925.2172910018353) rotate(0 68.68333435058594 17.5)"><text x="68.68333435058594" y="26.712" font-family="Nunito, sans-serif, Segoe UI Emoji" font-size="28px" fill="#ff4987" text-anchor="middle" style="white-space: pre;" direction="ltr" dominant-baseline="alphabetic">Sonnet 3.5</text></g><g transform="translate(802.2873909219356 3928.2399339583944) rotate(0 68.68333435058594 17.5)"><text x="68.68333435058594" y="26.712" font-family="Nunito, sans-serif, Segoe UI Emoji" font-size="28px" fill="#ff4987" text-anchor="middle" style="white-space: pre;" direction="ltr" dominant-baseline="alphabetic">Sonnet 3.5</text></g><g stroke-linecap="round" transform="translate(1189.6137580488935 3682.0889938951673) rotate(0 272.57825137973396 153.71783680516012)"><path d="M32 0 C211.91 0, 391.81 0, 513.16 0 M32 0 C159.06 0, 286.12 0, 513.16 0 M513.16 0 C534.49 0, 545.16 10.67, 545.16 32 M513.16 0 C534.49 0, 545.16 10.67, 545.16 32 M545.16 32 C545.16 83, 545.16 134.01, 545.16 275.44 M545.16 32 C545.16 115.98, 545.16 199.97, 545.16 275.44 M545.16 275.44 C545.16 296.77, 534.49 307.44, 513.16 307.44 M545.16 275.44 C545.16 296.77, 534.49 307.44, 513.16 307.44 M513.16 307.44 C342.84 307.44, 172.53 307.44, 32 307.44 M513.16 307.44 C348.7 307.44, 184.24 307.44, 32 307.44 M32 307.44 C10.67 307.44, 0 296.77, 0 275.44 M32 307.44 C10.67 307.44, 0 296.77, 0 275.44 M0 275.44 C0 193.51, 0 111.59, 0 32 M0 275.44 C0 198.1, 0 120.76, 0 32 M0 32 C0 10.67, 10.67 0, 32 0 M0 32 C0 10.67, 10.67 0, 32 0" stroke="#6649ff" stroke-width="2" fill="none"></path></g><g transform="translate(1317.2341474852687 3734.5248974355522) rotate(0 146.13981281050906 75.30343649802262)"><text x="146.13981281050908" y="57.47158273529089" font-family="Nunito, sans-serif, Segoe UI Emoji" font-size="60.242749198418124px" fill="#1e1e1e" text-anchor="middle" style="white-space: pre;" direction="ltr" dominant-baseline="alphabetic">Reasoning</text><text x="146.13981281050908" y="132.77501923331354" font-family="Nunito, sans-serif, Segoe UI Emoji" font-size="60.242749198418124px" fill="#1e1e1e" text-anchor="middle" style="white-space: pre;" direction="ltr" dominant-baseline="alphabetic">Agent</text></g><g transform="translate(1438.2491762525656 3918.0813087055976) rotate(0 19.191667556762695 17.5)"><text x="19.191667556762695" y="26.712" font-family="Nunito, sans-serif, Segoe UI Emoji" font-size="28px" fill="#ff4987" text-anchor="middle" style="white-space: pre;" direction="ltr" dominant-baseline="alphabetic">O3</text></g><g transform="translate(1585.05873764734 2866.880955902836) rotate(0 68.68333435058594 17.5)"><text x="68.68333435058594" y="26.712" font-family="Nunito, sans-serif, Segoe UI Emoji" font-size="28px" fill="#ff4987" text-anchor="middle" style="white-space: pre;" direction="ltr" dominant-baseline="alphabetic">Sonnet 3.5</text></g><g stroke-linecap="round" transform="translate(305.508599469749 4438.205488095651) rotate(0 272.57825137973384 153.71783680516012)"><path d="M32 0 C209.35 0, 386.69 0, 513.16 0 M32 0 C199.43 0, 366.86 0, 513.16 0 M513.16 0 C534.49 0, 545.16 10.67, 545.16 32 M513.16 0 C534.49 0, 545.16 10.67, 545.16 32 M545.16 32 C545.16 100.38, 545.16 168.75, 545.16 275.44 M545.16 32 C545.16 112.23, 545.16 192.46, 545.16 275.44 M545.16 275.44 C545.16 296.77, 534.49 307.44, 513.16 307.44 M545.16 275.44 C545.16 296.77, 534.49 307.44, 513.16 307.44 M513.16 307.44 C383.97 307.44, 254.78 307.44, 32 307.44 M513.16 307.44 C371.29 307.44, 229.42 307.44, 32 307.44 M32 307.44 C10.67 307.44, 0 296.77, 0 275.44 M32 307.44 C10.67 307.44, 0 296.77, 0 275.44 M0 275.44 C0 204.9, 0 134.35, 0 32 M0 275.44 C0 186.23, 0 97.03, 0 32 M0 32 C0 10.67, 10.67 0, 32 0 M0 32 C0 10.67, 10.67 0, 32 0" stroke="#6649ff" stroke-width="2" fill="none"></path></g><g transform="translate(442.6313201447215 4508.062332240132) rotate(0 141.38864719121034 75.30343649802262)"><text x="141.38864719121034" y="57.47158273529089" font-family="Nunito, sans-serif, Segoe UI Emoji" font-size="60.242749198418124px" fill="#1e1e1e" text-anchor="middle" style="white-space: pre;" direction="ltr" dominant-baseline="alphabetic">Software</text><text x="141.38864719121034" y="132.77501923331354" font-family="Nunito, sans-serif, Segoe UI Emoji" font-size="60.242749198418124px" fill="#1e1e1e" text-anchor="middle" style="white-space: pre;" direction="ltr" dominant-baseline="alphabetic">Developer</text></g><g transform="translate(512.5709602450947 4675.781524779181) rotate(0 68.68333435058594 17.5)"><text x="68.68333435058594" y="26.712" font-family="Nunito, sans-serif, Segoe UI Emoji" font-size="28px" fill="#ff4987" text-anchor="middle" style="white-space: pre;" direction="ltr" dominant-baseline="alphabetic">Sonnet 3.5</text></g><g stroke-linecap="round" transform="translate(1012.1610205381198 4445.44083711683) rotate(0 272.57825137973396 153.71783680516012)"><path d="M32 0 C192.26 0, 352.51 0, 513.16 0 M32 0 C184.51 0, 337.02 0, 513.16 0 M513.16 0 C534.49 0, 545.16 10.67, 545.16 32 M513.16 0 C534.49 0, 545.16 10.67, 545.16 32 M545.16 32 C545.16 82.86, 545.16 133.73, 545.16 275.44 M545.16 32 C545.16 111.66, 545.16 191.32, 545.16 275.44 M545.16 275.44 C545.16 296.77, 534.49 307.44, 513.16 307.44 M545.16 275.44 C545.16 296.77, 534.49 307.44, 513.16 307.44 M513.16 307.44 C389.78 307.44, 266.41 307.44, 32 307.44 M513.16 307.44 C361.15 307.44, 209.15 307.44, 32 307.44 M32 307.44 C10.67 307.44, 0 296.77, 0 275.44 M32 307.44 C10.67 307.44, 0 296.77, 0 275.44 M0 275.44 C0 196.65, 0 117.87, 0 32 M0 275.44 C0 207.68, 0 139.92, 0 32 M0 32 C0 10.67, 10.67 0, 32 0 M0 32 C0 10.67, 10.67 0, 32 0" stroke="#6649ff" stroke-width="2" fill="none"></path></g><g transform="translate(1139.781409974495 4497.876740657215) rotate(0 146.13981281050906 75.30343649802262)"><text x="146.13981281050908" y="57.47158273529089" font-family="Nunito, sans-serif, Segoe UI Emoji" font-size="60.242749198418124px" fill="#1e1e1e" text-anchor="middle" style="white-space: pre;" direction="ltr" dominant-baseline="alphabetic">Reasoning</text><text x="146.13981281050908" y="132.77501923331354" font-family="Nunito, sans-serif, Segoe UI Emoji" font-size="60.242749198418124px" fill="#1e1e1e" text-anchor="middle" style="white-space: pre;" direction="ltr" dominant-baseline="alphabetic">Agent</text></g><g transform="translate(1260.796438741792 4681.43315192726) rotate(0 19.191667556762695 17.5)"><text x="19.191667556762695" y="26.712" font-family="Nunito, sans-serif, Segoe UI Emoji" font-size="28px" fill="#ff4987" text-anchor="middle" style="white-space: pre;" direction="ltr" dominant-baseline="alphabetic">O3</text></g><g stroke-linecap="round" transform="translate(1808.049412867686 4435.793705088593) rotate(0 272.57825137973396 153.71783680516012)"><path d="M32 0 C168.39 0, 304.78 0, 513.16 0 M32 0 C175.01 0, 318.03 0, 513.16 0 M513.16 0 C534.49 0, 545.16 10.67, 545.16 32 M513.16 0 C534.49 0, 545.16 10.67, 545.16 32 M545.16 32 C545.16 85.08, 545.16 138.17, 545.16 275.44 M545.16 32 C545.16 125.42, 545.16 218.84, 545.16 275.44 M545.16 275.44 C545.16 296.77, 534.49 307.44, 513.16 307.44 M545.16 275.44 C545.16 296.77, 534.49 307.44, 513.16 307.44 M513.16 307.44 C335.07 307.44, 156.98 307.44, 32 307.44 M513.16 307.44 C370.17 307.44, 227.18 307.44, 32 307.44 M32 307.44 C10.67 307.44, 0 296.77, 0 275.44 M32 307.44 C10.67 307.44, 0 296.77, 0 275.44 M0 275.44 C0 221.23, 0 167.03, 0 32 M0 275.44 C0 193.25, 0 111.07, 0 32 M0 32 C0 10.67, 10.67 0, 32 0 M0 32 C0 10.67, 10.67 0, 32 0" stroke="#6649ff" stroke-width="2" fill="none"></path></g><g transform="translate(1935.6698023040612 4488.229608628978) rotate(0 146.13981281050906 75.30343649802262)"><text x="146.13981281050908" y="57.47158273529089" font-family="Nunito, sans-serif, Segoe UI Emoji" font-size="60.242749198418124px" fill="#1e1e1e" text-anchor="middle" style="white-space: pre;" direction="ltr" dominant-baseline="alphabetic">Reasoning</text><text x="146.13981281050908" y="132.77501923331354" font-family="Nunito, sans-serif, Segoe UI Emoji" font-size="60.242749198418124px" fill="#1e1e1e" text-anchor="middle" style="white-space: pre;" direction="ltr" dominant-baseline="alphabetic">Agent</text></g><g transform="translate(2056.6848310713563 4671.786019899024) rotate(0 19.191667556762695 17.5)"><text x="19.191667556762695" y="26.712" font-family="Nunito, sans-serif, Segoe UI Emoji" font-size="28px" fill="#ff4987" text-anchor="middle" style="white-space: pre;" direction="ltr" dominant-baseline="alphabetic">O3</text></g><g stroke-linecap="round" transform="translate(2406.1715986183913 4433.381922081533) rotate(0 272.57825137973396 153.71783680516012)"><path d="M32 0 C180.43 0, 328.87 0, 513.16 0 M32 0 C178.1 0, 324.2 0, 513.16 0 M513.16 0 C534.49 0, 545.16 10.67, 545.16 32 M513.16 0 C534.49 0, 545.16 10.67, 545.16 32 M545.16 32 C545.16 104.51, 545.16 177.01, 545.16 275.44 M545.16 32 C545.16 91.29, 545.16 150.57, 545.16 275.44 M545.16 275.44 C545.16 296.77, 534.49 307.44, 513.16 307.44 M545.16 275.44 C545.16 296.77, 534.49 307.44, 513.16 307.44 M513.16 307.44 C372.79 307.44, 232.42 307.44, 32 307.44 M513.16 307.44 C380.69 307.44, 248.21 307.44, 32 307.44 M32 307.44 C10.67 307.44, 0 296.77, 0 275.44 M32 307.44 C10.67 307.44, 0 296.77, 0 275.44 M0 275.44 C0 196.45, 0 117.47, 0 32 M0 275.44 C0 182.93, 0 90.42, 0 32 M0 32 C0 10.67, 10.67 0, 32 0 M0 32 C0 10.67, 10.67 0, 32 0" stroke="#6649ff" stroke-width="2" fill="none"></path></g><g transform="translate(2533.7919880547665 4485.817825621918) rotate(0 146.13981281050928 75.30343649802262)"><text x="146.13981281050908" y="57.47158273529089" font-family="Nunito, sans-serif, Segoe UI Emoji" font-size="60.242749198418124px" fill="#1e1e1e" text-anchor="middle" style="white-space: pre;" direction="ltr" dominant-baseline="alphabetic">Reasoning</text><text x="146.13981281050908" y="132.77501923331354" font-family="Nunito, sans-serif, Segoe UI Emoji" font-size="60.242749198418124px" fill="#1e1e1e" text-anchor="middle" style="white-space: pre;" direction="ltr" dominant-baseline="alphabetic">Agent</text></g><g transform="translate(2654.8070168220615 4669.374236891964) rotate(0 19.191667556762695 17.5)"><text x="19.191667556762695" y="26.712" font-family="Nunito, sans-serif, Segoe UI Emoji" font-size="28px" fill="#ff4987" text-anchor="middle" style="white-space: pre;" direction="ltr" dominant-baseline="alphabetic">O3</text></g><g stroke-linecap="round"><g transform="translate(1642.1696008892836 2950.3536707954154) rotate(0 -381.5796201619239 357.6527820011271)"><path d="M0 0 C-264.72 248.12, -529.43 496.24, -763.16 715.31 M0 0 C-271.41 254.39, -542.82 508.78, -763.16 715.31" stroke="#6649ff" stroke-width="2" fill="none"></path></g><g transform="translate(1642.1696008892836 2950.3536707954154) rotate(0 -381.5796201619239 357.6527820011271)"><path d="M-751.87 693 C-755.78 700.74, -759.7 708.47, -763.16 715.31 M-751.87 693 C-755.88 700.93, -759.9 708.87, -763.16 715.31" stroke="#6649ff" stroke-width="2" fill="none"></path></g><g transform="translate(1642.1696008892836 2950.3536707954154) rotate(0 -381.5796201619239 357.6527820011271)"><path d="M-740.17 705.48 C-748.15 708.89, -756.12 712.3, -763.16 715.31 M-740.17 705.48 C-748.35 708.97, -756.52 712.47, -763.16 715.31" stroke="#6649ff" stroke-width="2" fill="none"></path></g></g><mask></mask><g stroke-linecap="round"><g transform="translate(1651.9220039121865 2950.3536707954154) rotate(0 203.53888638150806 364.4379002579153)"><path d="M0 0 C85.53 153.15, 171.07 306.3, 407.08 728.88 M0 0 C103.13 184.65, 206.25 369.29, 407.08 728.88" stroke="#6649ff" stroke-width="2" fill="none"></path></g><g transform="translate(1651.9220039121865 2950.3536707954154) rotate(0 203.53888638150806 364.4379002579153)"><path d="M388.16 712.53 C392.13 715.97, 396.11 719.4, 407.08 728.88 M388.16 712.53 C392.95 716.67, 397.74 720.81, 407.08 728.88" stroke="#6649ff" stroke-width="2" fill="none"></path></g><g transform="translate(1651.9220039121865 2950.3536707954154) rotate(0 203.53888638150806 364.4379002579153)"><path d="M403.09 704.2 C403.93 709.38, 404.76 714.57, 407.08 728.88 M403.09 704.2 C404.1 710.45, 405.11 716.7, 407.08 728.88" stroke="#6649ff" stroke-width="2" fill="none"></path></g></g><mask></mask><g stroke-linecap="round"><g transform="translate(1656.0182157597797 2950.3536707954154) rotate(0 498.79776534066605 367.2275136345445)"><path d="M0 0 C166.27 122.41, 831.33 612.05, 997.6 734.46 M0 0 C166.27 122.41, 831.33 612.05, 997.6 734.46" stroke="#6649ff" stroke-width="2" fill="none"></path></g><g transform="translate(1656.0182157597797 2950.3536707954154) rotate(0 498.79776534066605 367.2275136345445)"><path d="M973.61 727.41 C980.11 729.32, 986.61 731.23, 997.6 734.46 M973.61 727.41 C982.82 730.12, 992.03 732.82, 997.6 734.46" stroke="#6649ff" stroke-width="2" fill="none"></path></g><g transform="translate(1656.0182157597797 2950.3536707954154) rotate(0 498.79776534066605 367.2275136345445)"><path d="M983.75 713.64 C987.5 719.28, 991.25 724.92, 997.6 734.46 M983.75 713.64 C989.06 721.63, 994.38 729.62, 997.6 734.46" stroke="#6649ff" stroke-width="2" fill="none"></path></g></g><mask></mask><g stroke-linecap="round"><g transform="translate(1647.0556220644335 2950.3536707954154) rotate(0 -91.6468601955703 362.86766154987583)"><path d="M0 0 C-30.55 120.96, -152.74 604.78, -183.29 725.74 M0 0 C-30.55 120.96, -152.74 604.78, -183.29 725.74" stroke="#6649ff" stroke-width="2" fill="none"></path></g><g transform="translate(1647.0556220644335 2950.3536707954154) rotate(0 -91.6468601955703 362.86766154987583)"><path d="M-185.83 700.86 C-185.12 707.88, -184.4 714.9, -183.29 725.74 M-185.83 700.86 C-185.07 708.34, -184.31 715.81, -183.29 725.74" stroke="#6649ff" stroke-width="2" fill="none"></path></g><g transform="translate(1647.0556220644335 2950.3536707954154) rotate(0 -91.6468601955703 362.86766154987583)"><path d="M-169.25 705.05 C-173.21 710.89, -177.18 716.72, -183.29 725.74 M-169.25 705.05 C-173.47 711.27, -177.69 717.48, -183.29 725.74" stroke="#6649ff" stroke-width="2" fill="none"></path></g></g><mask></mask><g stroke-linecap="round"><g transform="translate(868.7606402872348 3985.0949084079903) rotate(0 -143.38547563940688 223.5552898438305)"><path d="M0 0 C-47.8 74.52, -238.98 372.59, -286.77 447.11 M0 0 C-47.8 74.52, -238.98 372.59, -286.77 447.11" stroke="#6649ff" stroke-width="2" fill="none"></path></g><g transform="translate(868.7606402872348 3985.0949084079903) rotate(0 -143.38547563940688 223.5552898438305)"><path d="M-281.29 422.72 C-282.98 430.28, -284.68 437.83, -286.77 447.11 M-281.29 422.72 C-282.63 428.72, -283.98 434.71, -286.77 447.11" stroke="#6649ff" stroke-width="2" fill="none"></path></g><g transform="translate(868.7606402872348 3985.0949084079903) rotate(0 -143.38547563940688 223.5552898438305)"><path d="M-266.89 431.95 C-273.05 436.65, -279.21 441.34, -286.77 447.11 M-266.89 431.95 C-271.78 435.68, -276.67 439.41, -286.77 447.11" stroke="#6649ff" stroke-width="2" fill="none"></path></g></g><mask></mask><g stroke-linecap="round"><g transform="translate(877.9222263235383 3985.0949084079903) rotate(0 204.61441430068749 231.06071803463232)"><path d="M0 0 C68.2 77.02, 341.02 385.1, 409.23 462.12 M0 0 C68.2 77.02, 341.02 385.1, 409.23 462.12" stroke="#6649ff" stroke-width="2" fill="none"></path></g><g transform="translate(877.9222263235383 3985.0949084079903) rotate(0 204.61441430068749 231.06071803463232)"><path d="M387.25 450.2 C395.59 454.73, 403.94 459.25, 409.23 462.12 M387.25 450.2 C393.89 453.8, 400.54 457.41, 409.23 462.12" stroke="#6649ff" stroke-width="2" fill="none"></path></g><g transform="translate(877.9222263235383 3985.0949084079903) rotate(0 204.61441430068749 231.06071803463232)"><path d="M400.06 438.87 C403.54 447.69, 407.02 456.52, 409.23 462.12 M400.06 438.87 C402.83 445.89, 405.6 452.92, 409.23 462.12" stroke="#6649ff" stroke-width="2" fill="none"></path></g></g><mask></mask><g stroke-linecap="round"><g transform="translate(2063.7451831980047 3986.565790128931) rotate(0 8.355390975154023 221.61395747983102)"><path d="M0 0 C2.79 73.87, 13.93 369.36, 16.71 443.23 M0 0 C2.79 73.87, 13.93 369.36, 16.71 443.23" stroke="#6649ff" stroke-width="2" fill="none"></path></g><g transform="translate(2063.7451831980047 3986.565790128931) rotate(0 8.355390975154023 221.61395747983102)"><path d="M7.28 420.07 C9.69 425.99, 12.1 431.91, 16.71 443.23 M7.28 420.07 C10.22 427.29, 13.16 434.51, 16.71 443.23" stroke="#6649ff" stroke-width="2" fill="none"></path></g><g transform="translate(2063.7451831980047 3986.565790128931) rotate(0 8.355390975154023 221.61395747983102)"><path d="M24.37 419.43 C22.41 425.51, 20.46 431.59, 16.71 443.23 M24.37 419.43 C21.98 426.85, 19.6 434.26, 16.71 443.23" stroke="#6649ff" stroke-width="2" fill="none"></path></g></g><mask></mask><g stroke-linecap="round"><g transform="translate(2661.305622759686 4004.244371674825) rotate(0 8.627041835549335 211.5687752033541)"><path d="M0 0 C2.88 70.52, 14.38 352.61, 17.25 423.14 M0 0 C2.88 70.52, 14.38 352.61, 17.25 423.14" stroke="#6649ff" stroke-width="2" fill="none"></path></g><g transform="translate(2661.305622759686 4004.244371674825) rotate(0 8.627041835549335 211.5687752033541)"><path d="M7.75 400.01 C10.05 405.6, 12.35 411.19, 17.25 423.14 M7.75 400.01 C11.07 408.09, 14.39 416.16, 17.25 423.14" stroke="#6649ff" stroke-width="2" fill="none"></path></g><g transform="translate(2661.305622759686 4004.244371674825) rotate(0 8.627041835549335 211.5687752033541)"><path d="M24.84 399.32 C23.01 405.07, 21.17 410.83, 17.25 423.14 M24.84 399.32 C22.19 407.63, 19.54 415.95, 17.25 423.14" stroke="#6649ff" stroke-width="2" fill="none"></path></g></g><mask></mask><g stroke-linecap="round" transform="translate(657.6549600107792 10) rotate(0 1054.9999999999998 795)"><path d="M32 0 C460.97 0, 889.94 0, 2078 0 C2099.33 0, 2110 10.67, 2110 32 C2110 443.73, 2110 855.45, 2110 1558 C2110 1579.33, 2099.33 1590, 2078 1590 C1477.9 1590, 877.8 1590, 32 1590 C10.67 1590, 0 1579.33, 0 1558 C0 1038.06, 0 518.12, 0 32 C0 10.67, 10.67 0, 32 0" stroke="none" stroke-width="0" fill="#d0bfff"></path><path d="M32 0 C794.58 0, 1557.16 0, 2078 0 M32 0 C659.14 0, 1286.28 0, 2078 0 M2078 0 C2099.33 0, 2110 10.67, 2110 32 M2078 0 C2099.33 0, 2110 10.67, 2110 32 M2110 32 C2110 437.59, 2110 843.19, 2110 1558 M2110 32 C2110 560.04, 2110 1088.08, 2110 1558 M2110 1558 C2110 1579.33, 2099.33 1590, 2078 1590 M2110 1558 C2110 1579.33, 2099.33 1590, 2078 1590 M2078 1590 C1340.95 1590, 603.89 1590, 32 1590 M2078 1590 C1361.7 1590, 645.4 1590, 32 1590 M32 1590 C10.67 1590, 0 1579.33, 0 1558 M32 1590 C10.67 1590, 0 1579.33, 0 1558 M0 1558 C0 1141.03, 0 724.06, 0 32 M0 1558 C0 966.24, 0 374.48, 0 32 M0 32 C0 10.67, 10.67 0, 32 0 M0 32 C0 10.67, 10.67 0, 32 0" stroke="#6649ff" stroke-width="2" fill="none"></path></g><g transform="translate(1033.0586048198102 583.5819614127831) rotate(0 662.741638183594 201.4914042500052)"><text x="662.7416381835938" y="307.55647944720806" font-family="Nunito, sans-serif, Segoe UI Emoji" font-size="322.38624680000845px" fill="#1e1e1e" text-anchor="middle" style="white-space: pre;" direction="ltr" dominant-baseline="alphabetic">Overseer</text></g><g stroke-linecap="round"><g transform="translate(1712.8488559998655 1606) rotate(0 -1.2444506602332694 436.54695961604307)"><path d="M0 0 C-0.41 145.52, -2.07 727.58, -2.49 873.09 M0 0 C-0.41 145.52, -2.07 727.58, -2.49 873.09" stroke="#1e1e1e" stroke-width="4" fill="none"></path></g><g transform="translate(1712.8488559998655 1606) rotate(0 -1.2444506602332694 436.54695961604307)"><path d="M-10.97 849.58 C-7.64 858.83, -4.3 868.08, -2.49 873.09 M-10.97 849.58 C-7.86 858.22, -4.74 866.85, -2.49 873.09" stroke="#1e1e1e" stroke-width="4" fill="none"></path></g><g transform="translate(1712.8488559998655 1606) rotate(0 -1.2444506602332694 436.54695961604307)"><path d="M6.13 849.63 C2.74 858.86, -0.65 868.09, -2.49 873.09 M6.13 849.63 C2.96 858.25, -0.2 866.87, -2.49 873.09" stroke="#1e1e1e" stroke-width="4" fill="none"></path></g></g><mask></mask></svg>