<svg version="1.1" xmlns="http://www.w3.org/2000/svg" viewBox="0 0 1117.019722479593 845.0062185104907" width="1117.019722479593" height="845.0062185104907"><!-- svg-source:excalidraw --><metadata></metadata> <rect x="0" y="0" width="1117.019722479593" height="845.0062185104907" fill="#ffffff"></rect><g transform="translate(36.360575212564356 134.69213128396206) rotate(0 90.30833435058594 35)"><text x="0" y="26.712" font-family="Nunito, sans-serif, Segoe UI Emoji" font-size="28px" fill="#1e1e1e" text-anchor="start" style="white-space: pre;" direction="ltr" dominant-baseline="alphabetic">Agent Archive</text><text x="0" y="61.712" font-family="Nunito, sans-serif, Segoe UI Emoji" font-size="28px" fill="#1e1e1e" text-anchor="start" style="white-space: pre;" direction="ltr" dominant-baseline="alphabetic"></text></g><g stroke-linecap="round" transform="translate(25.952190265968625 192.19213128396206) rotate(0 100 24.5)"><path d="M12.25 0 C79.75 0, 147.26 0, 187.75 0 M12.25 0 C78.26 0, 144.27 0, 187.75 0 M187.75 0 C195.92 0, 200 4.08, 200 12.25 M187.75 0 C195.92 0, 200 4.08, 200 12.25 M200 12.25 C200 19.98, 200 27.72, 200 36.75 M200 12.25 C200 17.52, 200 22.8, 200 36.75 M200 36.75 C200 44.92, 195.92 49, 187.75 49 M200 36.75 C200 44.92, 195.92 49, 187.75 49 M187.75 49 C137.88 49, 88.01 49, 12.25 49 M187.75 49 C143.61 49, 99.47 49, 12.25 49 M12.25 49 C4.08 49, 0 44.92, 0 36.75 M12.25 49 C4.08 49, 0 44.92, 0 36.75 M0 36.75 C0 30.91, 0 25.07, 0 12.25 M0 36.75 C0 29.42, 0 22.09, 0 12.25 M0 12.25 C0 4.08, 4.08 0, 12.25 0 M0 12.25 C0 4.08, 4.08 0, 12.25 0" stroke="#1e1e1e" stroke-width="2" fill="none"></path></g><g transform="translate(39.952190265968625 204.69213128396206) rotate(0 36.43333435058594 12.5)"><text x="0" y="19.08" font-family="Nunito, sans-serif, Segoe UI Emoji" font-size="20px" fill="#1e1e1e" text-anchor="start" style="white-space: pre;" direction="ltr" dominant-baseline="alphabetic">Agent 0</text></g><g transform="translate(174.95219026596862 205.69213128396206) rotate(0 20.33333396911621 12.5)"><text x="0" y="19.08" font-family="Nunito, sans-serif, Segoe UI Emoji" font-size="20px" fill="#1e1e1e" text-anchor="start" style="white-space: pre;" direction="ltr" dominant-baseline="alphabetic">0.17</text></g><g stroke-linecap="round" transform="translate(10 123.19213128396206) rotate(0 115.5 305)"><path d="M32 0 C86.19 0.62, 139.38 1.63, 199 0 M32 0 C79.32 1.05, 127.54 1.18, 199 0 M199 0 C219.99 -1.12, 232.77 10.68, 231 32 M199 0 C222.24 -0.22, 229.48 12.02, 231 32 M231 32 C230.5 224.62, 231.23 417.39, 231 578 M231 32 C233 225.81, 233.39 419.39, 231 578 M231 578 C232.66 600.72, 219.51 610.95, 199 610 M231 578 C230.3 600.43, 220.39 611.28, 199 610 M199 610 C149.86 610.07, 99.7 613.08, 32 610 M199 610 C165.32 610.45, 130.8 612.1, 32 610 M32 610 C11.69 608.74, 1.42 599.05, 0 578 M32 610 C10.45 610.3, 0.44 601.41, 0 578 M0 578 C1.85 454.5, 1.69 331.56, 0 32 M0 578 C1.07 365.2, 0.8 152.17, 0 32 M0 32 C0.76 11.08, 9.7 -1.87, 32 0 M0 32 C-0.37 10.92, 9.91 0.87, 32 0" stroke="#1e1e1e" stroke-width="2" fill="none"></path></g><g stroke-linecap="round" transform="translate(24.952190265968625 250.69213128396206) rotate(0 100 24.5)"><path d="M12.25 0 C54.14 0, 96.03 0, 187.75 0 M12.25 0 C77.32 0, 142.39 0, 187.75 0 M187.75 0 C195.92 0, 200 4.08, 200 12.25 M187.75 0 C195.92 0, 200 4.08, 200 12.25 M200 12.25 C200 21.73, 200 31.21, 200 36.75 M200 12.25 C200 19.93, 200 27.61, 200 36.75 M200 36.75 C200 44.92, 195.92 49, 187.75 49 M200 36.75 C200 44.92, 195.92 49, 187.75 49 M187.75 49 C118.95 49, 50.14 49, 12.25 49 M187.75 49 C122.63 49, 57.5 49, 12.25 49 M12.25 49 C4.08 49, 0 44.92, 0 36.75 M12.25 49 C4.08 49, 0 44.92, 0 36.75 M0 36.75 C0 30.52, 0 24.3, 0 12.25 M0 36.75 C0 29.5, 0 22.25, 0 12.25 M0 12.25 C0 4.08, 4.08 0, 12.25 0 M0 12.25 C0 4.08, 4.08 0, 12.25 0" stroke="#1e1e1e" stroke-width="2" fill="none"></path></g><g transform="translate(38.952190265968625 263.19213128396206) rotate(0 36.43333435058594 12.5)"><text x="0" y="19.08" font-family="Nunito, sans-serif, Segoe UI Emoji" font-size="20px" fill="#1e1e1e" text-anchor="start" style="white-space: pre;" direction="ltr" dominant-baseline="alphabetic">Agent 1</text></g><g transform="translate(173.95219026596862 264.19213128396206) rotate(0 20.33333396911621 12.5)"><text x="0" y="19.08" font-family="Nunito, sans-serif, Segoe UI Emoji" font-size="20px" fill="#1e1e1e" text-anchor="start" style="white-space: pre;" direction="ltr" dominant-baseline="alphabetic">0.20</text></g><g stroke-linecap="round" transform="translate(25.952190265968625 308.69213128396206) rotate(0 100 24.5)"><path d="M12.25 0 C58.42 0, 104.6 0, 187.75 0 M12.25 0 C71.65 0, 131.04 0, 187.75 0 M187.75 0 C195.92 0, 200 4.08, 200 12.25 M187.75 0 C195.92 0, 200 4.08, 200 12.25 M200 12.25 C200 19.24, 200 26.23, 200 36.75 M200 12.25 C200 20.22, 200 28.2, 200 36.75 M200 36.75 C200 44.92, 195.92 49, 187.75 49 M200 36.75 C200 44.92, 195.92 49, 187.75 49 M187.75 49 C122.52 49, 57.29 49, 12.25 49 M187.75 49 C137.35 49, 86.96 49, 12.25 49 M12.25 49 C4.08 49, 0 44.92, 0 36.75 M12.25 49 C4.08 49, 0 44.92, 0 36.75 M0 36.75 C0 28.12, 0 19.48, 0 12.25 M0 36.75 C0 27.82, 0 18.9, 0 12.25 M0 12.25 C0 4.08, 4.08 0, 12.25 0 M0 12.25 C0 4.08, 4.08 0, 12.25 0" stroke="#1e1e1e" stroke-width="2" fill="none"></path></g><g transform="translate(39.952190265968625 321.19213128396206) rotate(0 36.43333435058594 12.5)"><text x="0" y="19.08" font-family="Nunito, sans-serif, Segoe UI Emoji" font-size="20px" fill="#1e1e1e" text-anchor="start" style="white-space: pre;" direction="ltr" dominant-baseline="alphabetic">Agent 2</text></g><g transform="translate(174.95219026596862 322.19213128396206) rotate(0 20.33333396911621 12.5)"><text x="0" y="19.08" font-family="Nunito, sans-serif, Segoe UI Emoji" font-size="20px" fill="#1e1e1e" text-anchor="start" style="white-space: pre;" direction="ltr" dominant-baseline="alphabetic">0.29</text></g><g stroke-linecap="round" transform="translate(26.952190265968625 364.69213128396206) rotate(0 100 37)"><path d="M18.5 0 C68.54 0, 118.59 0, 181.5 0 C193.83 0, 200 6.17, 200 18.5 C200 31.74, 200 44.98, 200 55.5 C200 67.83, 193.83 74, 181.5 74 C118.93 74, 56.37 74, 18.5 74 C6.17 74, 0 67.83, 0 55.5 C0 47.03, 0 38.56, 0 18.5 C0 6.17, 6.17 0, 18.5 0" stroke="none" stroke-width="0" fill="#ff4987"></path><path d="M18.5 0 C62.86 0, 107.22 0, 181.5 0 M18.5 0 C76.13 0, 133.75 0, 181.5 0 M181.5 0 C193.83 0, 200 6.17, 200 18.5 M181.5 0 C193.83 0, 200 6.17, 200 18.5 M200 18.5 C200 26.92, 200 35.34, 200 55.5 M200 18.5 C200 31.36, 200 44.22, 200 55.5 M200 55.5 C200 67.83, 193.83 74, 181.5 74 M200 55.5 C200 67.83, 193.83 74, 181.5 74 M181.5 74 C116.61 74, 51.73 74, 18.5 74 M181.5 74 C133.77 74, 86.04 74, 18.5 74 M18.5 74 C6.17 74, 0 67.83, 0 55.5 M18.5 74 C6.17 74, 0 67.83, 0 55.5 M0 55.5 C0 41.97, 0 28.44, 0 18.5 M0 55.5 C0 43.65, 0 31.8, 0 18.5 M0 18.5 C0 6.17, 6.17 0, 18.5 0 M0 18.5 C0 6.17, 6.17 0, 18.5 0" stroke="#ff4987" stroke-width="4" fill="none"></path></g><g transform="translate(39.952190265968625 378.19213128396206) rotate(0 36.43333435058594 12.5)"><text x="0" y="19.08" font-family="Nunito, sans-serif, Segoe UI Emoji" font-size="20px" fill="#1e1e1e" text-anchor="start" style="white-space: pre;" direction="ltr" dominant-baseline="alphabetic">Agent 3</text></g><g transform="translate(175.95219026596862 378.19213128396206) rotate(0 20.33333396911621 12.5)"><text x="0" y="19.08" font-family="Nunito, sans-serif, Segoe UI Emoji" font-size="20px" fill="#1e1e1e" text-anchor="start" style="white-space: pre;" direction="ltr" dominant-baseline="alphabetic">0.41</text></g><g stroke-linecap="round" transform="translate(24.952190265968625 446.69213128396206) rotate(0 100 24.5)"><path d="M12.25 0 C56.56 0, 100.87 0, 187.75 0 M12.25 0 C73.28 0, 134.32 0, 187.75 0 M187.75 0 C195.92 0, 200 4.08, 200 12.25 M187.75 0 C195.92 0, 200 4.08, 200 12.25 M200 12.25 C200 18.74, 200 25.23, 200 36.75 M200 12.25 C200 17.31, 200 22.37, 200 36.75 M200 36.75 C200 44.92, 195.92 49, 187.75 49 M200 36.75 C200 44.92, 195.92 49, 187.75 49 M187.75 49 C124.15 49, 60.55 49, 12.25 49 M187.75 49 C149.06 49, 110.36 49, 12.25 49 M12.25 49 C4.08 49, 0 44.92, 0 36.75 M12.25 49 C4.08 49, 0 44.92, 0 36.75 M0 36.75 C0 30.35, 0 23.94, 0 12.25 M0 36.75 C0 27.86, 0 18.97, 0 12.25 M0 12.25 C0 4.08, 4.08 0, 12.25 0 M0 12.25 C0 4.08, 4.08 0, 12.25 0" stroke="#1e1e1e" stroke-width="2" fill="none"></path></g><g transform="translate(38.952190265968625 457.19213128396206) rotate(0 36.43333435058594 12.5)"><text x="0" y="19.08" font-family="Nunito, sans-serif, Segoe UI Emoji" font-size="20px" fill="#1e1e1e" text-anchor="start" style="white-space: pre;" direction="ltr" dominant-baseline="alphabetic">Agent 4</text></g><g transform="translate(185.95219026596862 458.19213128396206) rotate(0 8.533333778381348 12.5)"><text x="0" y="19.08" font-family="Nunito, sans-serif, Segoe UI Emoji" font-size="20px" fill="#1e1e1e" text-anchor="start" style="white-space: pre;" direction="ltr" dominant-baseline="alphabetic">--</text></g><g transform="translate(173.95219026596862 405.69213128396206) rotate(0 19.575000762939453 12.5)"><text x="0" y="19.08" font-family="Nunito, sans-serif, Segoe UI Emoji" font-size="20px" fill="#1e1e1e" text-anchor="start" style="white-space: pre;" direction="ltr" dominant-baseline="alphabetic">best</text></g><g stroke-linecap="round" transform="translate(342.6276365088904 10) rotate(0 339.0864271036792 146.67121686283346)"><path d="M32 0 C170.78 0, 309.55 0, 646.17 0 M32 0 C231.54 0, 431.08 0, 646.17 0 M646.17 0 C667.51 0, 678.17 10.67, 678.17 32 M646.17 0 C667.51 0, 678.17 10.67, 678.17 32 M678.17 32 C678.17 91.96, 678.17 151.93, 678.17 261.34 M678.17 32 C678.17 118.51, 678.17 205.01, 678.17 261.34 M678.17 261.34 C678.17 282.68, 667.51 293.34, 646.17 293.34 M678.17 261.34 C678.17 282.68, 667.51 293.34, 646.17 293.34 M646.17 293.34 C469.07 293.34, 291.96 293.34, 32 293.34 M646.17 293.34 C502.58 293.34, 358.99 293.34, 32 293.34 M32 293.34 C10.67 293.34, 0 282.68, 0 261.34 M32 293.34 C10.67 293.34, 0 282.68, 0 261.34 M0 261.34 C0 175.11, 0 88.87, 0 32 M0 261.34 C0 186.29, 0 111.23, 0 32 M0 32 C0 10.67, 10.67 0, 32 0 M0 32 C0 10.67, 10.67 0, 32 0" stroke="#6649ff" stroke-width="2" fill="none"></path></g><g transform="translate(562.269332490288 30.503633988811316) rotate(0 101.66666412353521 52.5)"><text x="0" y="26.712" font-family="Nunito, sans-serif, Segoe UI Emoji" font-size="28px" fill="#1e1e1e" text-anchor="start" style="white-space: pre;" direction="ltr" dominant-baseline="alphabetic">Evaluation Loop</text><text x="0" y="61.712" font-family="Nunito, sans-serif, Segoe UI Emoji" font-size="28px" fill="#1e1e1e" text-anchor="start" style="white-space: pre;" direction="ltr" dominant-baseline="alphabetic"></text><text x="0" y="96.712" font-family="Nunito, sans-serif, Segoe UI Emoji" font-size="28px" fill="#1e1e1e" text-anchor="start" style="white-space: pre;" direction="ltr" dominant-baseline="alphabetic"></text></g><g stroke-opacity="0.8" fill-opacity="0.8" stroke-linecap="round" transform="translate(379.6601854581593 93.55720888454078) rotate(0 68.88943439833815 77.1367610516603)"><path d="M32 0 C58.25 0, 84.49 0, 105.78 0 M32 0 C59.02 0, 86.04 0, 105.78 0 M105.78 0 C127.11 0, 137.78 10.67, 137.78 32 M105.78 0 C127.11 0, 137.78 10.67, 137.78 32 M137.78 32 C137.78 57.35, 137.78 82.69, 137.78 122.27 M137.78 32 C137.78 60.23, 137.78 88.47, 137.78 122.27 M137.78 122.27 C137.78 143.61, 127.11 154.27, 105.78 154.27 M137.78 122.27 C137.78 143.61, 127.11 154.27, 105.78 154.27 M105.78 154.27 C86.58 154.27, 67.39 154.27, 32 154.27 M105.78 154.27 C76.76 154.27, 47.75 154.27, 32 154.27 M32 154.27 C10.67 154.27, 0 143.61, 0 122.27 M32 154.27 C10.67 154.27, 0 143.61, 0 122.27 M0 122.27 C0 89.84, 0 57.4, 0 32 M0 122.27 C0 94.21, 0 66.15, 0 32 M0 32 C0 10.67, 10.67 0, 32 0 M0 32 C0 10.67, 10.67 0, 32 0" stroke="#1e1e1e" stroke-width="2" fill="none"></path></g><g stroke-opacity="0.8" fill-opacity="0.8" transform="translate(409.29961985649743 135.69396993620109) rotate(0 39.25 35)"><text x="39.25" y="26.712" font-family="Nunito, sans-serif, Segoe UI Emoji" font-size="28px" fill="#1e1e1e" text-anchor="middle" style="white-space: pre;" direction="ltr" dominant-baseline="alphabetic">Latest</text><text x="39.25" y="61.712" font-family="Nunito, sans-serif, Segoe UI Emoji" font-size="28px" fill="#1e1e1e" text-anchor="middle" style="white-space: pre;" direction="ltr" dominant-baseline="alphabetic">Agent</text></g><g stroke-opacity="0.8" fill-opacity="0.8" transform="translate(590.2095835488547 208.98470906161577) rotate(0 3.6500000953674316 17.5)"><text x="0" y="26.712" font-family="Nunito, sans-serif, Segoe UI Emoji" font-size="28px" fill="#1e1e1e" text-anchor="start" style="white-space: pre;" direction="ltr" dominant-baseline="alphabetic"></text></g><g stroke-opacity="0.8" fill-opacity="0.8" stroke-linecap="round" transform="translate(604.7636894076586 92.1017982986603) rotate(0 80.53271908538107 77.1367610516603)"><path d="M32 0 C67.8 0, 103.61 0, 129.07 0 M32 0 C56.48 0, 80.96 0, 129.07 0 M129.07 0 C150.4 0, 161.07 10.67, 161.07 32 M129.07 0 C150.4 0, 161.07 10.67, 161.07 32 M161.07 32 C161.07 53.88, 161.07 75.76, 161.07 122.27 M161.07 32 C161.07 55.78, 161.07 79.55, 161.07 122.27 M161.07 122.27 C161.07 143.61, 150.4 154.27, 129.07 154.27 M161.07 122.27 C161.07 143.61, 150.4 154.27, 129.07 154.27 M129.07 154.27 C95.24 154.27, 61.41 154.27, 32 154.27 M129.07 154.27 C100.47 154.27, 71.88 154.27, 32 154.27 M32 154.27 C10.67 154.27, 0 143.61, 0 122.27 M32 154.27 C10.67 154.27, 0 143.61, 0 122.27 M0 122.27 C0 103.32, 0 84.36, 0 32 M0 122.27 C0 88.63, 0 54.99, 0 32 M0 32 C0 10.67, 10.67 0, 32 0 M0 32 C0 10.67, 10.67 0, 32 0" stroke="#1e1e1e" stroke-width="2" fill="none"></path></g><g stroke-opacity="0.8" fill-opacity="0.8" transform="translate(614.0630787200905 134.2385593503206) rotate(0 71.23332977294916 35)"><text x="71.23332977294922" y="26.712" font-family="Nunito, sans-serif, Segoe UI Emoji" font-size="28px" fill="#1e1e1e" text-anchor="middle" style="white-space: pre;" direction="ltr" dominant-baseline="alphabetic">Run</text><text x="71.23332977294922" y="61.712" font-family="Nunito, sans-serif, Segoe UI Emoji" font-size="28px" fill="#1e1e1e" text-anchor="middle" style="white-space: pre;" direction="ltr" dominant-baseline="alphabetic">Benchmark</text></g><g stroke-opacity="0.8" fill-opacity="0.8" stroke-linecap="round" transform="translate(853.1537627312431 91.13152457474013) rotate(0 68.88943439833815 77.1367610516603)"><path d="M32 0 C55.06 0, 78.13 0, 105.78 0 M32 0 C54.01 0, 76.03 0, 105.78 0 M105.78 0 C127.11 0, 137.78 10.67, 137.78 32 M105.78 0 C127.11 0, 137.78 10.67, 137.78 32 M137.78 32 C137.78 51.7, 137.78 71.4, 137.78 122.27 M137.78 32 C137.78 56.35, 137.78 80.7, 137.78 122.27 M137.78 122.27 C137.78 143.61, 127.11 154.27, 105.78 154.27 M137.78 122.27 C137.78 143.61, 127.11 154.27, 105.78 154.27 M105.78 154.27 C90.96 154.27, 76.15 154.27, 32 154.27 M105.78 154.27 C79.87 154.27, 53.96 154.27, 32 154.27 M32 154.27 C10.67 154.27, 0 143.61, 0 122.27 M32 154.27 C10.67 154.27, 0 143.61, 0 122.27 M0 122.27 C0 87.2, 0 52.14, 0 32 M0 122.27 C0 92.49, 0 62.7, 0 32 M0 32 C0 10.67, 10.67 0, 32 0 M0 32 C0 10.67, 10.67 0, 32 0" stroke="#1e1e1e" stroke-width="2" fill="none"></path></g><g stroke-opacity="0.8" fill-opacity="0.8" transform="translate(882.7931971295812 133.26828562640043) rotate(0 39.25 35)"><text x="39.25" y="26.712" font-family="Nunito, sans-serif, Segoe UI Emoji" font-size="28px" fill="#1e1e1e" text-anchor="middle" style="white-space: pre;" direction="ltr" dominant-baseline="alphabetic">Latest</text><text x="39.25" y="61.712" font-family="Nunito, sans-serif, Segoe UI Emoji" font-size="28px" fill="#1e1e1e" text-anchor="middle" style="white-space: pre;" direction="ltr" dominant-baseline="alphabetic">Agent</text></g><g stroke-linecap="round"><g transform="translate(523.4390542548356 170.60939728841134) rotate(0 37.66231757641151 -0.6277052929402203)"><path d="M0 0 C12.55 -0.21, 62.77 -1.05, 75.32 -1.26 M0 0 C12.55 -0.21, 62.77 -1.05, 75.32 -1.26" stroke="#6649ff" stroke-width="2" fill="none"></path></g><g transform="translate(523.4390542548356 170.60939728841134) rotate(0 37.66231757641151 -0.6277052929402203)"><path d="M51.98 7.69 C59.98 4.62, 67.97 1.56, 75.32 -1.26 M51.98 7.69 C58.73 5.1, 65.48 2.52, 75.32 -1.26" stroke="#6649ff" stroke-width="2" fill="none"></path></g><g transform="translate(523.4390542548356 170.60939728841134) rotate(0 37.66231757641151 -0.6277052929402203)"><path d="M51.69 -9.41 C59.79 -6.62, 67.88 -3.82, 75.32 -1.26 M51.69 -9.41 C58.53 -7.05, 65.36 -4.7, 75.32 -1.26" stroke="#6649ff" stroke-width="2" fill="none"></path></g></g><mask></mask><g stroke-linecap="round"><g transform="translate(764.8588538545004 168.26828562640043) rotate(0 41.14745443837137 0.007189500280901484)"><path d="M0 0 C13.72 0, 68.58 0.01, 82.29 0.01 M0 0 C13.72 0, 68.58 0.01, 82.29 0.01" stroke="#6649ff" stroke-width="2" fill="none"></path></g><g transform="translate(764.8588538545004 168.26828562640043) rotate(0 41.14745443837137 0.007189500280901484)"><path d="M58.8 8.56 C65.76 6.03, 72.73 3.5, 82.29 0.01 M58.8 8.56 C64.72 6.41, 70.64 4.25, 82.29 0.01" stroke="#6649ff" stroke-width="2" fill="none"></path></g><g transform="translate(764.8588538545004 168.26828562640043) rotate(0 41.14745443837137 0.007189500280901484)"><path d="M58.8 -8.54 C65.77 -6, 72.73 -3.47, 82.29 0.01 M58.8 -8.54 C64.72 -6.38, 70.64 -4.23, 82.29 0.01" stroke="#6649ff" stroke-width="2" fill="none"></path></g></g><mask></mask><g stroke-linecap="round"><g transform="translate(1026.800490716249 198.00911820670177) rotate(0 -351.33855921829945 114.88862761543129)"><path d="M0 0 C4.05 27.87, 154.26 128.93, 24.29 167.22 C-105.68 205.52, -645.79 219.35, -779.8 229.78 M0 0 C4.05 27.87, 154.26 128.93, 24.29 167.22 C-105.68 205.52, -645.79 219.35, -779.8 229.78" stroke="#1e1e1e" stroke-width="2" fill="none"></path></g><g transform="translate(1026.800490716249 198.00911820670177) rotate(0 -351.33855921829945 114.88862761543129)"><path d="M-756.79 220.01 C-765.72 223.81, -774.66 227.6, -779.8 229.78 M-756.79 220.01 C-762 222.23, -767.22 224.44, -779.8 229.78" stroke="#1e1e1e" stroke-width="2" fill="none"></path></g><g transform="translate(1026.800490716249 198.00911820670177) rotate(0 -351.33855921829945 114.88862761543129)"><path d="M-755.89 237.09 C-765.18 234.25, -774.46 231.41, -779.8 229.78 M-755.89 237.09 C-761.31 235.43, -766.73 233.78, -779.8 229.78" stroke="#1e1e1e" stroke-width="2" fill="none"></path></g></g><mask></mask><g stroke-linecap="round"><g transform="translate(247.0000000000001 412.2209225557389) rotate(0 44.81381825444521 -119.74408136065486)"><path d="M0 0 C14.94 -39.91, 74.69 -199.57, 89.63 -239.49 M0 0 C14.94 -39.91, 74.69 -199.57, 89.63 -239.49" stroke="#1e1e1e" stroke-width="2" fill="none"></path></g><g transform="translate(247.0000000000001 412.2209225557389) rotate(0 44.81381825444521 -119.74408136065486)"><path d="M89.4 -214.49 C89.48 -222.95, 89.55 -231.42, 89.63 -239.49 M89.4 -214.49 C89.45 -219.96, 89.5 -225.42, 89.63 -239.49" stroke="#1e1e1e" stroke-width="2" fill="none"></path></g><g transform="translate(247.0000000000001 412.2209225557389) rotate(0 44.81381825444521 -119.74408136065486)"><path d="M73.39 -220.48 C78.88 -226.92, 84.38 -233.35, 89.63 -239.49 M73.39 -220.48 C76.94 -224.64, 80.49 -228.79, 89.63 -239.49" stroke="#1e1e1e" stroke-width="2" fill="none"></path></g></g><mask></mask><g stroke-linecap="round" transform="translate(342.3288864936784 541.6637847848237) rotate(0 339.0864271036793 146.6712168628335)"><path d="M32 0 C255.48 0, 478.97 0, 646.17 0 M32 0 C194.16 0, 356.33 0, 646.17 0 M646.17 0 C667.51 0, 678.17 10.67, 678.17 32 M646.17 0 C667.51 0, 678.17 10.67, 678.17 32 M678.17 32 C678.17 102.96, 678.17 173.92, 678.17 261.34 M678.17 32 C678.17 85.1, 678.17 138.19, 678.17 261.34 M678.17 261.34 C678.17 282.68, 667.51 293.34, 646.17 293.34 M678.17 261.34 C678.17 282.68, 667.51 293.34, 646.17 293.34 M646.17 293.34 C416.83 293.34, 187.49 293.34, 32 293.34 M646.17 293.34 C498.94 293.34, 351.71 293.34, 32 293.34 M32 293.34 C10.67 293.34, 0 282.68, 0 261.34 M32 293.34 C10.67 293.34, 0 282.68, 0 261.34 M0 261.34 C0 212.66, 0 163.98, 0 32 M0 261.34 C0 205.27, 0 149.19, 0 32 M0 32 C0 10.67, 10.67 0, 32 0 M0 32 C0 10.67, 10.67 0, 32 0" stroke="#ff4987" stroke-width="2" fill="none"></path></g><g transform="translate(547.4164766162722 558.2863238779541) rotate(0 118.9749984741211 52.5)"><text x="0" y="26.712" font-family="Nunito, sans-serif, Segoe UI Emoji" font-size="28px" fill="#1e1e1e" text-anchor="start" style="white-space: pre;" direction="ltr" dominant-baseline="alphabetic">Improvement Loop</text><text x="0" y="61.712" font-family="Nunito, sans-serif, Segoe UI Emoji" font-size="28px" fill="#1e1e1e" text-anchor="start" style="white-space: pre;" direction="ltr" dominant-baseline="alphabetic"></text><text x="0" y="96.712" font-family="Nunito, sans-serif, Segoe UI Emoji" font-size="28px" fill="#1e1e1e" text-anchor="start" style="white-space: pre;" direction="ltr" dominant-baseline="alphabetic"></text></g><g stroke-opacity="0.8" fill-opacity="0.8" stroke-linecap="round" transform="translate(379.36143544294725 625.2209936693646) rotate(0 68.88943439833815 77.1367610516603)"><path d="M32 0 C46.84 0, 61.67 0, 105.78 0 M32 0 C52.8 0, 73.59 0, 105.78 0 M105.78 0 C127.11 0, 137.78 10.67, 137.78 32 M105.78 0 C127.11 0, 137.78 10.67, 137.78 32 M137.78 32 C137.78 53.32, 137.78 74.63, 137.78 122.27 M137.78 32 C137.78 56.47, 137.78 80.93, 137.78 122.27 M137.78 122.27 C137.78 143.61, 127.11 154.27, 105.78 154.27 M137.78 122.27 C137.78 143.61, 127.11 154.27, 105.78 154.27 M105.78 154.27 C82.29 154.27, 58.81 154.27, 32 154.27 M105.78 154.27 C87.43 154.27, 69.09 154.27, 32 154.27 M32 154.27 C10.67 154.27, 0 143.61, 0 122.27 M32 154.27 C10.67 154.27, 0 143.61, 0 122.27 M0 122.27 C0 100.58, 0 78.89, 0 32 M0 122.27 C0 90.41, 0 58.54, 0 32 M0 32 C0 10.67, 10.67 0, 32 0 M0 32 C0 10.67, 10.67 0, 32 0" stroke="#1e1e1e" stroke-width="2" fill="none"></path></g><g stroke-opacity="0.8" fill-opacity="0.8" transform="translate(409.30920419187134 667.357754721025) rotate(0 38.94166564941406 35.00000000000006)"><text x="38.94166564941406" y="26.712" font-family="Nunito, sans-serif, Segoe UI Emoji" font-size="28px" fill="#1e1e1e" text-anchor="middle" style="white-space: pre;" direction="ltr" dominant-baseline="alphabetic">Best</text><text x="38.94166564941406" y="61.712" font-family="Nunito, sans-serif, Segoe UI Emoji" font-size="28px" fill="#1e1e1e" text-anchor="middle" style="white-space: pre;" direction="ltr" dominant-baseline="alphabetic">Agent</text></g><g stroke-opacity="0.8" fill-opacity="0.8" stroke-linecap="round" transform="translate(680.1462898582269 623.765583083484) rotate(0 152.81811151744 77.1367610516603)"><path d="M32 0 C100.74 0, 169.47 0, 273.64 0 M32 0 C107.79 0, 183.59 0, 273.64 0 M273.64 0 C294.97 0, 305.64 10.67, 305.64 32 M273.64 0 C294.97 0, 305.64 10.67, 305.64 32 M305.64 32 C305.64 67.85, 305.64 103.71, 305.64 122.27 M305.64 32 C305.64 58.83, 305.64 85.66, 305.64 122.27 M305.64 122.27 C305.64 143.61, 294.97 154.27, 273.64 154.27 M305.64 122.27 C305.64 143.61, 294.97 154.27, 273.64 154.27 M273.64 154.27 C219.82 154.27, 166.01 154.27, 32 154.27 M273.64 154.27 C218.31 154.27, 162.99 154.27, 32 154.27 M32 154.27 C10.67 154.27, 0 143.61, 0 122.27 M32 154.27 C10.67 154.27, 0 143.61, 0 122.27 M0 122.27 C0 99.81, 0 77.35, 0 32 M0 122.27 C0 96.97, 0 71.67, 0 32 M0 32 C0 10.67, 10.67 0, 32 0 M0 32 C0 10.67, 10.67 0, 32 0" stroke="#1e1e1e" stroke-width="2" fill="none"></path></g><g stroke-opacity="0.8" fill-opacity="0.8" transform="translate(781.6810685509598 683.4023441351444) rotate(0 51.28333282470703 17.5)"><text x="51.28333282470703" y="26.712" font-family="Nunito, sans-serif, Segoe UI Emoji" font-size="28px" fill="#1e1e1e" text-anchor="middle" style="white-space: pre;" direction="ltr" dominant-baseline="alphabetic">Improve</text></g><g stroke-linecap="round"><g transform="translate(523.1403042396236 702.3196106446637) rotate(0 75.50299280930165 -0.674133864368855)"><path d="M0 0 C25.17 -0.22, 125.84 -1.12, 151.01 -1.35 M0 0 C25.17 -0.22, 125.84 -1.12, 151.01 -1.35" stroke="#ff4987" stroke-width="2" fill="none"></path></g><g transform="translate(523.1403042396236 702.3196106446637) rotate(0 75.50299280930165 -0.674133864368855)"><path d="M127.59 7.41 C134.33 4.89, 141.07 2.37, 151.01 -1.35 M127.59 7.41 C133.93 5.04, 140.27 2.67, 151.01 -1.35" stroke="#ff4987" stroke-width="2" fill="none"></path></g><g transform="translate(523.1403042396236 702.3196106446637) rotate(0 75.50299280930165 -0.674133864368855)"><path d="M127.44 -9.69 C134.22 -7.29, 141 -4.89, 151.01 -1.35 M127.44 -9.69 C133.82 -7.43, 140.2 -5.17, 151.01 -1.35" stroke="#ff4987" stroke-width="2" fill="none"></path></g></g><mask></mask><g stroke-linecap="round"><g transform="translate(247 443.65512849963017) rotate(0 44.6644432468392 114.65360508786569)"><path d="M0 0 C14.89 38.22, 74.44 191.09, 89.33 229.31 M0 0 C14.89 38.22, 74.44 191.09, 89.33 229.31" stroke="#1e1e1e" stroke-width="2" fill="none"></path></g><g transform="translate(247 443.65512849963017) rotate(0 44.6644432468392 114.65360508786569)"><path d="M72.83 210.52 C77.4 215.72, 81.97 220.93, 89.33 229.31 M72.83 210.52 C77.71 216.07, 82.58 221.62, 89.33 229.31" stroke="#1e1e1e" stroke-width="2" fill="none"></path></g><g transform="translate(247 443.65512849963017) rotate(0 44.6644432468392 114.65360508786569)"><path d="M88.77 204.31 C88.92 211.24, 89.08 218.16, 89.33 229.31 M88.77 204.31 C88.93 211.7, 89.1 219.08, 89.33 229.31" stroke="#1e1e1e" stroke-width="2" fill="none"></path></g></g><mask></mask><g stroke-linecap="round"><g transform="translate(1026.5017407010369 644.1086795067511) rotate(0 -349.49187946124056 -113.69174392798527)"><path d="M0 0 C4.74 -35, 158.39 -174.02, 28.47 -209.99 C-101.45 -245.95, -644.84 -214.84, -779.5 -215.81 M0 0 C4.74 -35, 158.39 -174.02, 28.47 -209.99 C-101.45 -245.95, -644.84 -214.84, -779.5 -215.81" stroke="#1e1e1e" stroke-width="2" fill="none"></path></g><g transform="translate(1026.5017407010369 644.1086795067511) rotate(0 -349.49187946124056 -113.69174392798527)"><path d="M-756.23 -224.93 C-762.27 -222.57, -768.31 -220.2, -779.5 -215.81 M-756.23 -224.93 C-764.29 -221.77, -772.36 -218.61, -779.5 -215.81" stroke="#1e1e1e" stroke-width="2" fill="none"></path></g><g transform="translate(1026.5017407010369 644.1086795067511) rotate(0 -349.49187946124056 -113.69174392798527)"><path d="M-755.81 -207.84 C-761.96 -209.91, -768.11 -211.98, -779.5 -215.81 M-755.81 -207.84 C-764.02 -210.6, -772.23 -213.37, -779.5 -215.81" stroke="#1e1e1e" stroke-width="2" fill="none"></path></g></g><mask></mask></svg>